<svg xmlns="http://www.w3.org/2000/svg"  viewBox="0 0 100 100" width="100px" height="100px"><path fill="#4b4dff" d="M50.575,82C32.929,82,18.57,67.647,18.57,50s14.359-32,32.005-32 c7.995,0,15.647,2.962,21.554,8.342l1.076,0.984L62.651,37.88l-0.978-0.837c-3.098-2.652-7.038-4.114-11.098-4.114 c-9.413,0-17.076,7.658-17.076,17.071s7.663,17.071,17.076,17.071c6.788,0,12.152-3.467,14.679-9.375H49.184V43.288l31.375,0.043 l0.234,1.103c1.636,7.766,0.326,19.19-6.304,27.364C68.999,78.565,60.956,82,50.575,82z"/><polygon fill="#ff8405" points="27,73.875 38.562,62.312 51.5,68 62.5,63 74.375,73.25 59,81.125 39.375,80.625"/><path fill="#ff8405" d="M24.625,31.125l10.25,11.625c0,0,11.428-17.989,27.776-4.87L72.75,26.625 C72.75,26.625,46.25,6.25,24.625,31.125z"/><rect width="4" height="14.584" x="27.156" y="30.614" fill="#edf7f5" transform="rotate(-45.001 29.156 37.907)"/><rect width="15.291" height="4" x="25.511" y="65.469" fill="#edf7f5" transform="rotate(-45.001 33.156 67.47)"/><rect width="4" height="19.849" x="67.5" y="58.575" fill="#edf7f5" transform="rotate(-49.088 69.496 68.5)"/><path fill="#4343bf" d="M50.575,85c-19.303,0-35.006-15.701-35.006-35s15.703-35,35.006-35 c8.741,0,17.114,3.24,23.574,9.125l3.397,3.104l-13.081,13.08l18.523,0.025l0.738,3.478c1.778,8.443,0.331,20.952-6.909,29.877 C70.729,81.194,61.9,85,50.575,85z M50.575,21c-15.994,0-29.006,13.01-29.006,29s13.012,29,29.006,29 c9.428,0,16.689-3.059,21.583-9.091c5.645-6.958,7.027-16.597,5.933-23.581l-25.907-0.036v8.403h17.617l-1.788,4.18 c-2.998,7.01-9.517,11.195-17.438,11.195c-11.07,0-20.076-9.004-20.076-20.07s9.006-20.07,20.076-20.07 c4.275,0,8.439,1.378,11.879,3.906l6.375-6.376C63.675,23.284,57.255,21,50.575,21z M50.575,35.93 c-7.762,0-14.076,6.312-14.076,14.07s6.314,14.07,14.076,14.07c3.634,0,6.757-1.192,9.055-3.375H46.184V40.284l14.686,0.02 l-1.146-0.979C57.166,37.135,53.918,35.93,50.575,35.93z"/><path fill="#3abcf8" d="M52.08,88.769c-0.155,0-0.312-0.001-0.467-0.004C29.771,88.445,12,71.953,12,52h9.639 C22.62,66.795,35.351,78.526,51.76,78.767c7.641,0.092,15.922-3.8,21.196-9.965l7.598,6.502 C73.421,83.639,62.55,88.769,52.08,88.769z"/></svg>